<svg width="70" height="70" viewBox="0 0 70 70" fill="none" xmlns="http://www.w3.org/2000/svg">
<g id="gift-open">
<path id="Vector" d="M64.1666 31.8499L56.1749 27.2124C63.8749 20.6499 56.1457 8.39989 46.8999 12.5707L44.3624 13.6499L44.0416 10.8499C43.7499 7.69989 42.1166 5.45406 39.9582 4.14156C35.1749 1.36198 27.8833 3.26656 26.7166 10.2082L18.6958 5.59989C15.8958 3.96656 12.3374 4.92906 10.7333 7.72906L7.81659 12.7749C6.99992 14.1749 7.49575 15.9541 8.89575 16.7707L31.6166 29.8957L35.9916 22.3124L41.0374 25.2291L36.6624 32.8124L59.3833 45.9374C60.7832 46.6666 62.5916 46.2582 63.3791 44.8582L66.2957 39.8124C67.8999 37.0124 66.9666 33.4541 64.1666 31.8499ZM36.0791 14.5832C33.5416 15.3124 31.4999 12.5999 32.7832 10.3541C33.5416 8.95406 35.3791 8.48739 36.7791 9.27489C39.0249 10.5874 38.5874 13.9707 36.0791 14.5832ZM51.2166 23.3332C48.7082 24.0624 46.6666 21.3499 47.9499 19.1041C48.7374 17.7041 50.5457 17.2374 51.9166 18.0249C54.1624 19.3374 53.7249 22.7207 51.2166 23.3332ZM60.8708 49.2332C62.0666 49.2332 63.2041 48.8249 64.1666 48.1249V58.3332C64.1666 61.5707 61.5707 64.1666 58.3332 64.1666H11.6666C8.45825 64.1666 5.83325 61.5707 5.83325 58.3332V32.0832H29.6041L32.0833 33.5416V58.3332H37.9166V36.8957L57.9541 48.4457C58.8291 48.9707 59.7916 49.2332 60.8708 49.2332Z" fill="black"/>
</g>
</svg>
